<?xml version="1.0" encoding="utf-8"?>
<!-- Generator: Adobe Illustrator 22.1.0, SVG Export Plug-In . SVG Version: 6.00 Build 0)  -->
<svg version="1.1" id="Layer_1" xmlns="http://www.w3.org/2000/svg" xmlns:xlink="http://www.w3.org/1999/xlink" x="0px" y="0px"
	 viewBox="0 0 250 130" style="enable-background:new 0 0 250 130;" xml:space="preserve">
<style type="text/css">
	.st0{fill:#211A15;}
	.st1{fill:#ED1B2E;}
</style>
<g>
	<g>
		<g>
			<polygon class="st0" points="15.5,116.9 24.4,74.4 41.4,74.4 47.2,99.9 62.8,74.1 79.9,74.1 70.8,116.8 57.1,116.8 60.8,97.9 
				48.8,117 37.9,117 34.2,97.2 29.8,116.9 			"/>
			<polygon class="st0" points="90.4,117 76.1,117 84.3,74.7 98.6,74.7 			"/>
			<polygon class="st0" points="145,74.4 103.1,74.4 101.3,83.6 114.9,83.6 108.2,117 122.8,117 129.6,83.6 143.2,83.6 			"/>
			<path class="st0" d="M188.5,87.7c0.1-10.9-8.2-12.8-8.2-12.8l-32-0.1l-8.2,42.3h14.3l6.5-33.7h10.2c4.3,0.8,4.1,5.3,4.1,5.3
				c0.5,4.7-4.8,6.7-4.8,6.7l-10.9-0.1l13.6,30.3l15-0.1l-8.5-23.4C189.5,97.9,188.5,87.7,188.5,87.7z"/>
			<polygon class="st0" points="232.5,83.6 234.5,74.7 209.3,74.7 198.4,74.7 196.4,74.7 188.2,117 227,117 229.1,107.8 
				202.9,107.8 204.6,98.9 226.1,98.9 227.7,90.1 211.4,90.1 205.4,95.2 205.1,96.6 207.6,83.6 			"/>
			<path class="st1" d="M50.2,70c0,0,30.3-35.1,101.2-64.4c0,0,3.8-2.4,2.4,2c0,0-12.3,18-17.7,23.8c0,0-1.4,2,1,1.4
				c0,0,18.4-11.9,36.1-18.1c0,0,2-0.3,2,0.7c0,0-4.1,19.8-7.5,22.1c0,0,0,1.4,1.4,1c0,0,26.2-10.5,51.4-10.9l1,0.7
				c0,0-61.3,17.7-66.8,25.9c0,0-4.4,0.3-3.1-2.4c0,0,4.1-17.4,6.5-19.4c0,0-38.5,24.5-45,23.2c0,0-3.1,0.4-1-2.7
				c0,0,2.7-9.2,9.5-21.5c0,0-58.6,27.2-68.1,37.5C53.6,69,53,71,50.2,70z"/>
		</g>
	</g>
</g>
</svg>
